<svg xmlns="http://www.w3.org/2000/svg" width="40" height="38" viewBox="0 0 40 38" version="1.1">
	<path d="M7.9 0L31.7 0C31.9 0.7 32.4 2 32.6 2.7 35.1 3 38.1 1.9 40 3.7L40 6.2C39.6 8.1 39.2 10.2 37.7 11.6 36.2 13.3 33.7 13.5 31.6 14.1 29.9 18.7 25.9 22.1 21.1 22.8 21.1 25.8 21.1 28.7 21.1 31.7 22.8 31.8 24.5 31.8 26.3 31.9 26.2 32.4 26 33.3 25.9 33.8 22 34.3 18 34.2 14 33.9 14 33.4 13.8 32.4 13.7 31.9 15.4 31.8 17.1 31.8 18.8 31.7 18.8 28.7 18.8 25.8 18.8 22.8 13.9 22.1 9.9 18.6 8.1 14.1 4 13.8 0.3 10.9 0 6.5L0 3.8C0.2 3.6 0.7 3 1 2.7 3.1 2.7 5.2 2.7 7.3 2.7 7.4 2 7.7 0.7 7.9 0M9.8 2.4C9.9 7.4 8.9 13.3 12.8 17.2 16.4 21.5 23.6 21.4 27.2 17.1 31 13.1 29.8 7.4 30 2.4 23.3 2.4 16.6 2.4 9.8 2.4M2.2 5.1C2.3 8.3 4 11.4 7.5 11.6 7.5 9.4 7.5 7.2 7.5 5 5.7 5 4 5.1 2.2 5.1M32.3 5C32.3 7.2 32.3 9.4 32.2 11.6 35.8 11.4 37.8 8.4 37.8 5.1 36 5.1 34.2 5 32.3 5ZM9.7 35.9C16.5 35.5 23.4 35.4 30.2 35.9 30 36.4 29.5 37.5 29.3 38L10.6 38C10.4 37.5 9.9 36.4 9.7 35.9Z"/>
</svg>