<svg xmlns="http://www.w3.org/2000/svg" width="33" height="33" viewBox="0 0 33 33" version="1.1">
	<path d="M29.3 0L33 0 33 5.5C32.3 9.2 31.9 13.3 29 16.1 26.1 18.8 22.4 20.2 19 22.2 19 24.1 19 25.9 19 27.8 17.4 29.4 15.8 31 13.9 32.4 12.9 28.1 11.2 24.1 7.7 21.2 5.3 20.7 2.9 20.2 0.6 19.2 2 17.4 3.6 15.7 5.2 14 7.2 13.9 9.3 14.2 11.3 13.7 13.4 10.3 14.6 6.2 17.8 3.6 21 1 25.3 0.6 29.3 0M18 5.9C15.5 8.9 14.2 12.7 12.1 16 10 16 7.9 16 5.9 16 5.2 16.8 4.5 17.6 3.8 18.4 8.5 18.3 11.1 22.2 13.9 25.3 14.2 26.7 14.5 28 14.9 29.4 15.6 28.6 16.3 27.9 17 27.2 17 25.2 17 23.2 17 21.2 20.1 19.3 23.6 17.9 26.6 15.8 30.9 12.6 31 6.8 31 2 26.5 2.1 21.4 2.6 18 5.9ZM20 7C22 5.9 24 5.8 26 7 26.6 8.6 27.7 10.6 26.3 12.1 25 14.5 22 14.2 20 13 18.9 11 18.8 9 20 7M22.1 8.1C19.8 9.2 21.3 12.9 23.8 12 26.3 10.9 24.7 7 22.1 8.1ZM2 25.2C3.3 24.5 4.5 23.7 5.8 22.9 6 23.3 6.5 24.1 6.8 24.5 4.4 25.6 2.5 27.3 2.9 30.1 5.7 30.5 7.3 28.5 8.5 26.3 8.9 26.6 9.7 27 10.1 27.2 9.1 28.7 8.5 30.8 6.6 31.3 4.8 31.9 2.8 32 0.9 32.1 0.9 29.8 1.3 27.4 2 25.2Z"/>
</svg>