<svg xmlns="http://www.w3.org/2000/svg" width="38" height="38" viewBox="0 0 38 38" version="1.1">
	<path d="M22.5 0L23.8 0C27.1 0.8 30.8 2.6 31.8 6.2 32.5 11.3 32.1 17.1 28.4 21.1 31.7 22.8 34.9 24.5 38 26.6L38 30.5C36.8 32.6 34.3 31.9 32.3 32L31.4 30.3C33 30.2 34.5 30.1 36.1 29.8 36 29.3 36 28.2 35.9 27.7L35.4 27.4C32.5 25.3 28.6 24.4 26.2 21.7 26 19.5 28.3 18.1 29 16.2 30.5 13.1 30.1 9.6 29.9 6.3 29.7 6 29.1 5.4 28.9 5 28.6 4.7 28 4 27.7 3.7 25 1.1 21.1 2.1 18.2 3.6 17.8 3.3 16.9 2.8 16.5 2.6 18.3 1.4 20.4 0.5 22.5 0ZM6.1 12.2C7.2 8.5 11.3 6.2 15 6 18.8 6.3 23.3 8.8 23.6 13 23.9 17.8 23.8 23.3 20.2 26.9 23.2 28.7 26.4 30.2 29.3 32.2 29.9 34.1 29.8 36.4 28.5 38L0.7 38 0.6 37.4 0 37.5 0 32.6C3 30.3 6.5 28.8 9.7 26.9 6 23 5.5 17.3 6.1 12.2M9.4 10.3L9.7 10.4C6.8 12.3 8.1 17.3 8.5 20.4 8.5 23.3 12.5 24.9 11.8 27.8 9.1 30.3 5.3 31.5 2.2 33.5 2.2 34.1 2.2 35.2 2.3 35.7 10.5 35.7 18.8 35.9 27 35.7 27.1 35.1 27.3 34 27.4 33.5 24.4 31.4 20.7 30.3 18 27.8 17.5 25 21.1 23.7 21.1 21 21.5 17.1 22.9 11.6 18.6 9.3 15.7 7.2 12.1 8.5 9.4 10.3Z"/>
	<path d="M15.5 4.2C15.7 3.8 16.3 3 16.5 2.6 16.9 2.8 17.8 3.3 18.2 3.6 21.1 2.1 25 1.1 27.7 3.7 23.7 1.5 19.6 3.5 15.5 4.2ZM28.9 5C29.1 5.4 29.7 6 29.9 6.3 30.1 9.6 30.5 13.1 29 16.2 29.5 12.5 30.3 8.6 28.9 5ZM8.5 20.4C8.1 17.3 6.8 12.3 9.7 10.4 9.9 10.4 10.2 10.5 10.3 10.5 7 12.7 8.7 17.1 8.5 20.4ZM35.4 27.4L35.9 27.7C36 28.2 36 29.3 36.1 29.8 34.5 30.1 33 30.2 31.4 30.3 31.3 30.1 31.1 29.8 31 29.6 32.5 29.6 34.1 29.5 35.6 29.5 35.5 29 35.5 27.9 35.4 27.4Z"/>
</svg>