<svg xmlns="http://www.w3.org/2000/svg" width="40" height="40" viewBox="0 0 40 40" version="1.1">
	<path d="M14.5 1.7C20.4-0.2 27.2 1.2 32 5.1 36.7 8.9 39.5 15 39.1 21 38.8 28.4 33.7 35.3 26.8 37.9 20.6 40.4 13.1 39.1 8 34.9 3.3 31.1 0.5 25.1 0.9 19 1.2 11.2 6.9 3.9 14.5 1.7M15.5 3.8C8 5.7 2.5 13.4 3.1 21.2 3.6 30.1 12.1 37.7 21.1 36.9 31.1 36.4 39.1 25.9 36.4 16.1 34.5 7.2 24.4 1 15.5 3.8ZM19 7C19.5 7 20.5 7 21 7 21.1 11.1 21.1 15.3 21.1 19.5 23.1 22 26.9 23.7 27.2 27.2 23.5 26.8 21.8 22.7 19 20.6 18.9 16.1 18.9 11.5 19 7Z"/>
</svg>